<?xml version="1.0" encoding="UTF-8"?>
<svg width="491px" height="449px" viewBox="0 0 491 449" version="1.1" xmlns="http://www.w3.org/2000/svg" xmlns:xlink="http://www.w3.org/1999/xlink">
    <!-- Generator: Sketch 43.1 (39012) - http://www.bohemiancoding.com/sketch -->
    <title>noun_452314_cc</title>
    <desc>Created with Sketch.</desc>
    <defs></defs>
    <g id="Page-1" stroke="none" stroke-width="1" fill="none" fill-rule="evenodd">
        <g id="play/ic_launcher_APP" transform="translate(-12.000000, -28.000000)" fill-rule="nonzero" fill="#000000">
            <g id="noun_452314_cc" transform="translate(-122.000000, 28.000000)">
                <g id="Group" transform="translate(133.609509, 0.000000)">
                    <path d="M292.100395,123.711826 L278.85048,123.711826 C278.750102,123.305214 278.750102,123.000255 278.649724,122.593642 C281.861824,120.357274 283.869387,116.596109 283.869387,112.428332 L283.869387,110.903535 C283.869387,103.991124 278.348589,98.4002038 271.522875,98.4002038 L213.203175,98.4002038 C206.377461,98.4002038 200.856663,103.991124 200.856663,110.903535 L200.856663,112.428332 C200.856663,116.596109 202.864226,120.357274 206.076327,122.593642 C205.975948,123.000255 205.975948,123.305214 205.87557,123.711826 L192.726034,123.711826 C162.913725,123.711826 138.622215,148.311877 138.622215,178.502849 L138.622215,354.159411 C138.622215,380.385912 156.991415,402.647941 181.985572,407.730596 L181.985572,420.132275 L175.360615,429.077748 C172.550027,432.838913 172.148514,437.819915 174.256455,442.089345 C176.364396,446.358776 180.580278,448.900103 185.197673,448.900103 L299.528377,448.900103 C304.346528,448.900103 308.763166,446.155469 310.971486,441.784386 C313.179805,437.413302 312.677914,432.228994 309.766948,428.264523 L302.6401,418.607478 L302.6401,407.628943 C327.634257,402.546288 346.003457,380.182605 346.003457,354.057758 L346.003457,178.502849 C346.103835,148.311877 321.912703,123.711826 292.100395,123.711826 Z M191.722252,416.879376 L191.722252,409.052087 L191.82263,381.605749 C191.722252,373.066888 198.547966,366.154477 206.97973,366.154477 L277.846698,366.154477 C286.278462,366.154477 293.104176,373.066888 293.104176,381.605749 L293.104176,416.879376 L191.722252,416.879376 Z M168.334145,354.972636 L168.334145,177.689624 C168.334145,163.051577 180.178766,151.056511 194.633218,151.056511 L205.574436,151.056511 L205.574436,175.554909 C191.621874,182.873932 182.085951,197.613632 182.085951,214.488047 L182.085951,292.964243 C182.085951,309.025433 190.718471,323.053562 203.466495,330.779197 C200.455151,333.727137 198.447588,337.894915 198.447588,342.469304 L198.447588,348.670143 C198.447588,351.82139 199.350991,354.76933 200.957041,357.209004 C191.119983,359.648679 183.591623,368.085886 182.286707,378.454503 C173.854943,373.880113 168.334145,364.93464 168.334145,354.972636 Z M270.418716,336.065159 C273.931951,336.065159 276.742539,338.911446 276.742539,342.469304 L276.742539,348.670143 C276.742539,352.228002 273.931951,355.074289 270.418716,355.074289 L214.407712,355.074289 C210.894477,355.074289 208.083889,352.228002 208.083889,348.670143 L208.083889,342.469304 C208.083889,338.911446 210.894477,336.065159 214.407712,336.065159 L217.117922,336.065159 C219.828132,336.573424 222.63872,336.878384 225.449308,336.878384 L259.37712,336.878384 C262.187708,336.878384 264.998296,336.573424 267.708506,336.065159 L270.418716,336.065159 Z M266.704725,326.306461 L218.121704,326.306461 C214.508091,325.493236 211.195612,324.070093 208.083889,322.240337 L219.42662,314.718007 C226.352711,322.34199 234.884853,325.086624 240.907542,325.28993 L241.911323,325.28993 C250.644222,325.28993 259.979389,321.325459 266.503968,311.566761 L280.155396,319.800662 C276.240648,322.951908 271.723632,325.188277 266.704725,326.306461 Z M191.722252,266.127824 L207.983511,275.988175 C207.782755,278.936115 207.782755,281.884055 208.083889,284.831995 C208.786536,293.879121 210.994856,301.096491 214.0062,306.687412 L200.455151,315.734538 C195.135109,309.737005 191.82263,301.70641 191.82263,292.964243 L191.82263,266.127824 L191.722252,266.127824 Z M262.488843,297.741939 L254.057079,292.659284 C254.860104,292.354324 255.562751,291.947712 256.265398,291.337793 C256.767289,290.931181 257.068423,290.321262 257.269179,289.711344 L264.79754,284.730342 L264.79754,285.64522 C264.295649,290.321262 263.492624,294.285733 262.488843,297.741939 Z M230.76935,307.195677 C233.680316,310.448577 236.69166,313.193211 239.40187,315.327926 C236.792038,314.921313 231.973887,313.49817 227.557249,309.228739 L230.76935,307.195677 Z M249.038172,314.209742 C246.930231,312.888251 241.208676,309.025433 236.189769,303.536166 L244.420777,298.046898 L258.373339,306.484106 C255.562751,310.753536 252.149894,312.989904 249.038172,314.209742 Z M235.185988,292.557631 L230.468215,295.708877 C229.163299,293.370855 228.360274,290.829528 227.958762,288.186547 L235.185988,292.557631 Z M228.360274,277.004706 C229.163299,272.023704 230.668971,267.246008 232.074265,262.569965 C232.275022,261.858393 232.475778,261.146822 232.676534,260.536903 C234.684097,268.770804 237.595063,278.224543 241.208676,284.831995 L228.360274,277.004706 Z M248.134768,283.917117 C243.71813,277.309665 238.799601,260.231944 236.089391,244.882325 C235.788257,243.255876 234.382963,242.137691 232.776912,242.239345 C231.170862,242.340998 229.865946,243.560835 229.765568,245.187285 C229.263677,250.168287 227.758005,255.250942 226.051577,260.638556 C224.847039,264.603027 223.441745,268.872458 222.538342,273.446847 L218.222082,270.803867 C220.631157,254.132758 228.661409,237.563302 233.780694,228.312869 C241.409433,243.662488 248.636659,258.605494 249.540062,261.146822 C250.041953,263.281537 251.949138,264.907987 254.257835,264.907987 C256.867667,264.907987 258.975608,262.874925 259.075986,260.333597 L259.37712,254.844329 C261.585439,259.622025 263.69338,265.822864 264.596784,273.141888 L248.134768,283.917117 Z M221.333804,284.120423 C221.333804,285.238607 221.333804,286.356791 221.434182,287.576629 C221.735317,291.744406 223.140611,295.708877 225.148174,299.368389 L222.036451,301.503104 C219.92851,297.13202 218.32246,291.5411 217.720191,284.120423 C217.619813,283.408851 217.619813,282.595626 217.619813,281.884055 L221.333804,284.120423 Z M286.981109,312.583292 L270.920607,302.824594 C272.627035,298.148551 273.831573,292.659284 274.433842,286.255138 C274.634598,283.408851 274.634598,280.765871 274.634598,278.12289 L293.204554,265.721211 L293.204554,292.964243 C293.104176,300.283266 290.795479,306.992371 286.981109,312.583292 Z M292.602285,254.437717 L273.43006,267.246008 C269.816447,248.135225 259.477498,237.055036 258.87523,236.445118 C257.570314,235.021974 255.562751,234.615362 253.755944,235.22528 C251.949138,235.936852 250.7446,237.563302 250.644222,239.494711 L250.543844,240.511242 C247.632878,234.513709 243.71813,226.584767 238.498467,216.012844 C237.695441,214.488047 236.189769,213.471516 234.483341,213.369863 C232.776912,213.26821 231.170862,214.081435 230.167081,215.504578 C229.364056,216.724416 214.106578,240.002976 209.388805,265.416252 L191.722252,254.742676 L191.722252,214.488047 C191.722252,195.682223 206.879352,180.332605 225.449308,180.332605 L259.37712,180.332605 C277.947077,180.332605 293.104176,195.682223 293.104176,214.488047 L293.104176,254.132758 C292.90342,254.234411 292.702664,254.336064 292.602285,254.437717 Z M283.869387,357.209004 C285.375059,354.76933 286.378841,351.82139 286.378841,348.670143 L286.378841,342.469304 C286.378841,337.894915 284.471656,333.727137 281.359933,330.779197 C285.073925,328.542829 288.486782,325.696542 291.397748,322.545296 C298.424218,314.616354 302.740478,304.349391 302.740478,293.065896 L302.740478,214.488047 C302.740478,197.511979 293.204554,182.873932 279.251992,175.554909 L279.251992,151.056511 L290.19321,151.056511 C304.647663,151.056511 316.492283,163.051577 316.492283,177.689624 L316.492283,354.972636 C316.492283,364.93464 310.971486,373.880113 302.539722,378.454503 C301.134428,368.085886 293.706445,359.648679 283.869387,357.209004 Z M213.303553,108.158902 L271.623254,108.158902 C273.128926,108.158902 274.333463,109.378739 274.333463,110.903535 L274.333463,112.428332 C274.333463,113.749822 273.229304,114.96966 271.924388,115.071313 L264.496406,115.884537 L268.310775,122.390336 C269.214178,124.016786 269.716069,125.643235 269.716069,127.371338 L269.716069,168.642498 L215.210738,168.642498 L215.210738,127.371338 C215.210738,125.643235 215.712628,124.016786 216.616032,122.390336 L220.430401,115.884537 L213.002418,115.071313 C211.597124,114.868006 210.593343,113.749822 210.593343,112.428332 L210.593343,110.903535 C210.593343,109.378739 211.797881,108.158902 213.303553,108.158902 Z M148.258516,354.159411 L148.258516,178.502849 C148.258516,153.699492 168.233767,133.470524 192.726034,133.470524 L204.068764,133.470524 L204.068764,141.297813 L194.53284,141.297813 C174.758346,141.297813 158.597465,157.663963 158.597465,177.689624 L158.597465,354.972636 C158.597465,370.220601 168.033011,383.740464 181.985572,389.026425 L181.985572,397.768592 C162.512213,392.889243 148.258516,374.998297 148.258516,354.159411 Z M302.439343,437.514956 C302.138209,438.023221 301.435562,439.243058 299.628755,439.243058 L185.398429,439.243058 C183.892757,439.243058 183.290488,438.226527 182.989354,437.718262 C182.788598,437.311649 182.387085,436.091812 183.19011,434.871975 L189.313177,426.53642 L296.617411,426.53642 L302.238587,434.05875 C303.242369,435.583547 302.740478,437.00669 302.439343,437.514956 Z M302.840856,397.768592 L302.840856,389.026425 C316.69304,383.740464 326.128585,370.220601 326.128585,355.074289 L326.128585,177.689624 C326.128585,157.663963 309.967704,141.297813 290.19321,141.297813 L280.757665,141.297813 L280.757665,133.470524 L292.100395,133.470524 C316.592661,133.470524 336.567912,153.699492 336.567912,178.502849 L336.567912,354.159411 C336.467534,374.998297 322.314216,392.78759 302.840856,397.768592 Z" id="Shape" style="mix-blend-mode: darken;"></path>
                    <path d="M272.526657,1.11818413 C271.121363,0.914877928 269.716069,0.813224824 268.310775,0.711571721 L260.48128,84.3720755 L263.392246,84.3720755 L272.526657,1.11818413 Z" id="Shape"></path>
                    <path d="M234.583719,84.3720755 L229.163299,0.101653103 C227.657627,0.203306206 226.252333,0.304959309 224.847039,0.406612412 L231.672753,84.2704224 L234.583719,84.2704224 L234.583719,84.3720755 Z" id="Shape"></path>
                    <path d="M158.697843,119.645702 L106.701965,43.1009157 C105.597806,43.9141405 104.393268,44.7273653 103.289109,45.5405902 L156.088012,120.86554 C156.991415,120.357274 157.79444,120.052315 158.697843,119.645702 Z" id="Shape"></path>
                    <path d="M186.602967,115.274619 L144.745282,21.3471516 C143.440366,21.9570703 142.13545,22.5669889 140.930912,23.1769075 L183.692001,115.274619 L186.602967,115.274619 L186.602967,115.274619 Z" id="Shape"></path>
                    <path d="M205.072545,84.4737286 L186.201454,6.91241101 C184.79616,7.21737032 183.390866,7.62398273 181.985572,8.03059514 L202.161579,85.1853004 C203.064982,84.7786879 204.068764,84.5753817 205.072545,84.4737286 Z" id="Shape"></path>
                    <path d="M361.863204,199.443388 L472.078404,153.394533 C471.576514,152.073042 470.974245,150.751552 470.371976,149.328408 L361.762826,196.902061 L361.762826,199.443388 L361.863204,199.443388 Z" id="Shape"></path>
                    <path d="M449.5937,110.496923 L361.562069,169.862335 C361.662447,170.777213 361.662447,171.793744 361.662447,172.810275 L451.902398,114.156435 C451.199751,112.936597 450.396725,111.71676 449.5937,110.496923 Z" id="Shape"></path>
                    <path d="M361.863204,222.518643 L485.027185,195.478917 C484.72605,194.055774 484.424916,192.734283 484.123781,191.31114 L361.863204,220.180621 L361.863204,222.518643 L361.863204,222.518643 Z" id="Shape"></path>
                    <path d="M335.965643,126.151501 L393.181184,49.8100205 C391.976647,48.8951426 390.772109,47.9802646 389.567571,47.0653867 L333.857702,124.728357 C334.459971,125.236623 335.262996,125.643235 335.965643,126.151501 Z" id="Shape"></path>
                    <path d="M422.391224,76.1381742 L352.628415,143.839141 C353.130305,144.652366 353.632196,145.363937 354.033709,146.177162 L425.30219,79.2894204 C424.298408,78.2728894 423.395005,77.1547052 422.391224,76.1381742 Z" id="Shape"></path>
                    <path d="M311.071864,116.087844 L356.14165,26.3281537 C354.836734,25.616582 353.43144,25.0066634 352.126524,24.2950916 L308.462032,115.579578 C309.365435,115.782884 310.16846,115.986191 311.071864,116.087844 Z" id="Shape"></path>
                    <path d="M70.1643216,74.1051121 L134.205577,137.943261 C134.807845,137.231689 135.510492,136.520117 136.112761,135.706893 L73.0752877,71.1571721 L70.1643216,74.1051121 Z" id="Shape"></path>
                    <path d="M361.863204,343.079223 L436.444164,403.766125 C437.347567,402.647941 438.25097,401.529757 439.154373,400.30992 L361.863204,339.521364 L361.863204,343.079223 Z" id="Shape"></path>
                    <path d="M49.6871805,398.175205 L120.754905,343.587488 L120.754905,340.232936 L46.9769707,394.41404 C47.880374,395.633877 48.7837773,396.955367 49.6871805,398.175205 Z" id="Shape"></path>
                    <path d="M361.863204,312.379986 L460.635296,367.069355 C461.337943,365.747865 462.04059,364.528028 462.642859,363.206537 L361.863204,309.635352 L361.863204,312.379986 Z" id="Shape"></path>
                    <path d="M361.863204,265.212946 L488.138907,283.408851 C488.339663,281.985708 488.54042,280.460911 488.741176,279.037768 L361.863204,263.078231 L361.863204,265.212946 Z" id="Shape"></path>
                    <path d="M361.863204,287.373322 L478.101093,326.509767 C478.602983,325.086624 479.004496,323.765133 479.406009,322.34199 L361.863204,284.933648 L361.863204,287.373322 L361.863204,287.373322 Z" id="Shape"></path>
                    <path d="M26.6421194,361.783394 L122.762471,312.231029 L122.762471,309.432046 L24.5926449,357.636752 C25.2074873,358.984411 25.9248033,360.332069 26.6421194,361.783394 Z" id="Shape"></path>
                    <path d="M7.02646998,188.668159 L120.754905,216.927722 L120.754905,214.589701 L8.13062954,184.297076 C7.72911697,185.821872 7.3276044,187.245016 7.02646998,188.668159 Z" id="Shape"></path>
                    <path d="M21.1797881,146.787081 L120.754905,191.819405 L120.754905,189.074772 L22.9865946,142.924263 C22.3843258,144.245753 21.7820569,145.46559 21.1797881,146.787081 Z" id="Shape"></path>
                    <path d="M42.5603324,108.158902 L122.160199,163.254884 C122.360956,162.340006 122.66209,161.323475 122.862846,160.408597 L44.9694078,104.601043 C44.1663827,105.82088 43.3633576,106.939064 42.5603324,108.158902 Z" id="Shape"></path>
                    <path d="M1.50567214,276.293134 L120.754905,262.671618 L120.754905,260.43525 L1.10415957,271.922051 C1.20453771,273.446847 1.30491585,274.869991 1.50567214,276.293134 Z" id="Shape"></path>
                    <path d="M361.863204,243.764141 L490.447604,239.596364 C490.447604,238.071567 490.347226,236.546771 490.246848,235.021974 L361.863204,241.934385 L361.863204,243.764141 Z" id="Shape"></path>
                    <path d="M10.2385705,319.597356 L120.754905,286.051832 L120.754905,283.612158 L9.03403283,315.429579 C9.4355454,316.852722 9.83705797,318.174213 10.2385705,319.597356 Z" id="Shape"></path>
                    <path d="M0.40151257,232.378994 L120.754905,239.901323 L120.754905,237.868261 L0.80302514,227.804604 C0.602268855,229.3294 0.501890713,230.854197 0.40151257,232.378994 Z" id="Shape"></path>
                    <path d="M288.286025,95.8588762 L288.58716,95.8588762 L315.488502,9.9620041 C314.083208,9.55539169 312.677914,9.14877928 311.27262,8.74216686 L286.880731,93.1142424 C287.382622,94.0291203 287.884513,95.0456514 288.286025,95.8588762 Z" id="Shape"></path>
                </g>
            </g>
        </g>
    </g>
</svg>